<svg xmlns="http://www.w3.org/2000/svg" width="37" height="37" viewBox="0 0 37 37">
  <path id="clock-rotate-right-icon" d="M25.334,33.019a1.521,1.521,0,0,1,.2-.071,1.532,1.532,0,0,1,.2-.114A16.045,16.045,0,0,0,27.9,31.6a1.5,1.5,0,0,1,1.31-.174,1.234,1.234,0,0,1,.352,2.223A18.961,18.961,0,0,1,27,35.106a1.465,1.465,0,0,1-.258.093,1.346,1.346,0,0,1-.185.1l-.018.008,0,0a19.982,19.982,0,0,1-14.13.74A18,18,0,0,1,1.847,27.42a15.6,15.6,0,0,1-.808-12.947,17.48,17.48,0,0,1,9.419-9.68,19.762,19.762,0,0,1,4.949-1.452,20.03,20.03,0,0,1,4.239-.205l-.787-.68A1.338,1.338,0,0,1,18.792.447,1.651,1.651,0,0,1,20.983.386L24.131,3.1a1.452,1.452,0,0,1,.3.351,1.333,1.333,0,0,1-.214,1.857L21.04,8.006a1.648,1.648,0,0,1-2.186-.078,1.335,1.335,0,0,1,.085-2l.3-.258a17.07,17.07,0,0,0-3.379.187,16.74,16.74,0,0,0-4.2,1.232,14.852,14.852,0,0,0-8,8.224,13.26,13.26,0,0,0,.688,11,15.3,15.3,0,0,0,8.976,7.335,17.058,17.058,0,0,0,6.614.746q.078-.016.158-.025c.26-.025.518-.058.776-.094a1.644,1.644,0,0,1,.2-.014,16.758,16.758,0,0,0,4.264-1.243Zm-9.8-19.846a1.438,1.438,0,0,1,2.865,0v7.99l5.967,2.4a1.271,1.271,0,0,1,.734,1.728,1.484,1.484,0,0,1-1.886.672l-6.752-2.719a1.324,1.324,0,0,1-.929-1.23V13.174Zm15.92,15.084a1.187,1.187,0,0,0-.038,1.4,1.467,1.467,0,0,0,2.326.053,17.007,17.007,0,0,0,1.51-2.388,1.311,1.311,0,0,0-1.527-1.8,1.375,1.375,0,0,0-.991.706,14.4,14.4,0,0,1-1.28,2.023Zm2.669-6.5a1.4,1.4,0,0,0,2.269,1.125,1.241,1.241,0,0,0,.5-.847,15.46,15.46,0,0,0,.086-2.755,1.416,1.416,0,0,0-2.294-.9,1.226,1.226,0,0,0-.487,1.039A13.188,13.188,0,0,1,34.123,21.753Zm-.995-6.914a1.446,1.446,0,0,0,2.576.039,1.174,1.174,0,0,0,.017-.969,16.324,16.324,0,0,0-1.313-2.477,1.468,1.468,0,0,0-2.215-.225,1.193,1.193,0,0,0-.184,1.522,14.088,14.088,0,0,1,1.118,2.11ZM28.746,9.146A1.4,1.4,0,0,0,31.039,8.04a1.24,1.24,0,0,0-.475-.827,18.676,18.676,0,0,0-2.431-1.625,1.378,1.378,0,0,0-2.1,1.306,1.276,1.276,0,0,0,.646.873,15.908,15.908,0,0,1,2.065,1.381Z" transform="translate(-0.004 0)" fill="#707070"/>
</svg>
