<svg xmlns="http://www.w3.org/2000/svg" width="32.896" height="34.794" viewBox="0 0 32.896 34.794">
  <path id="schedule-calendar-icon" d="M29.812,34.794H3.083A3.145,3.145,0,0,1,0,31.612V6.385A3.145,3.145,0,0,1,3.083,3.2H5.928V7.119A3.539,3.539,0,0,0,7.209,9.84a3.9,3.9,0,0,0,5.023,0,3.539,3.539,0,0,0,1.281-2.721V3.2h5.744V7.119A3.539,3.539,0,0,0,20.538,9.84a3.9,3.9,0,0,0,5.023,0,3.539,3.539,0,0,0,1.281-2.721V3.2h2.971A3.151,3.151,0,0,1,32.9,6.385V31.612A3.143,3.143,0,0,1,29.812,34.794Zm-6.885-18.72h4.416a.577.577,0,0,1,.565.566v3.794a.577.577,0,0,1-.565.566H22.927a.574.574,0,0,1-.549-.566v-3.78a.572.572,0,0,1,.549-.566Zm-8.644,0H18.7a.574.574,0,0,1,.549.566v3.794A.577.577,0,0,1,18.7,21H14.283a.574.574,0,0,1-.549-.566v-3.78a.574.574,0,0,1,.549-.566Zm-8.734,0H9.969a.574.574,0,0,1,.549.566v3.794A.577.577,0,0,1,9.969,21H5.549a.574.574,0,0,1-.562-.566v-3.78a.571.571,0,0,1,.562-.566Zm17.378,8.067h4.416a.577.577,0,0,1,.565.566V28.5a.574.574,0,0,1-.565.58H22.927a.575.575,0,0,1-.549-.58v-3.78a.574.574,0,0,1,.549-.566Zm-8.644,0H18.7a.574.574,0,0,1,.549.566V28.5a.575.575,0,0,1-.549.58H14.283a.575.575,0,0,1-.549-.58v-3.78a.577.577,0,0,1,.549-.566Zm-8.734,0H9.969a.574.574,0,0,1,.549.566V28.5a.575.575,0,0,1-.549.58H5.549a.574.574,0,0,1-.562-.58v-3.78a.574.574,0,0,1,.562-.566ZM21.561,1.26a1.506,1.506,0,0,1,2.971,0V7.119a1.509,1.509,0,0,1-2.976,0V1.26Zm-13.332,0A1.393,1.393,0,0,1,9.722,0a1.388,1.388,0,0,1,1.487,1.26V7.119a1.386,1.386,0,0,1-1.487,1.26,1.391,1.391,0,0,1-1.492-1.26ZM.988,12.419V31.272a2.473,2.473,0,0,0,2.425,2.5h26.06a2.473,2.473,0,0,0,2.428-2.5V12.419Z" fill="#888289"/>
</svg>
