<svg id="railway-icon" xmlns="http://www.w3.org/2000/svg" width="53.549" height="61.426" viewBox="0 0 53.549 61.426">
  <path id="Path_33" data-name="Path 33" d="M38.482,50.663H15.4l-2.712,3.469H41.1l-2.614-3.469Zm-28.35,6.728L6.976,61.426H0L11.333,46.7H9.319c-2.747,0-5-1.95-5-4.329V4.329C4.328,1.95,6.572,0,9.319,0H44.645c2.747,0,5,1.95,5,4.329V42.37c0,2.379-2.25,4.329-5,4.329H42.683L53.549,61.216H46.422l-2.879-3.824Zm26.2-23.57h6.047a1.126,1.126,0,0,1,1.194,1.035v5.234a1.126,1.126,0,0,1-1.194,1.035H36.336a1.126,1.126,0,0,1-1.194-1.035V34.852a1.125,1.125,0,0,1,1.194-1.03Zm-25.384,0H17a1.126,1.126,0,0,1,1.194,1.035v5.234A1.126,1.126,0,0,1,17,41.125H10.952a1.126,1.126,0,0,1-1.194-1.035V34.852a1.125,1.125,0,0,1,1.194-1.03ZM14.484,8.348h24.7c2.654,0,4.824,1.88,4.824,4.184v6.583c0,2.3-2.17,4.179-4.824,4.179h-24.7c-2.654,0-4.824-1.88-4.824-4.179V12.532c0-2.3,2.17-4.184,4.824-4.184ZM22.118,1.9h9.348a.8.8,0,0,1,.848.735V5.824a.8.8,0,0,1-.848.735H22.118a.8.8,0,0,1-.848-.735V2.634a.792.792,0,0,1,.848-.735Z" fill="#707070" fill-rule="evenodd"/>
</svg>
